<?xml version="1.0" encoding="utf-8"?>
<!-- Generator: Adobe Illustrator 25.4.1, SVG Export Plug-In . SVG Version: 6.00 Build 0)  -->
<svg version="1.1" id="Capa_1" xmlns="http://www.w3.org/2000/svg" xmlns:xlink="http://www.w3.org/1999/xlink" x="0px" y="0px"
	 viewBox="0 0 12 16" style="enable-background:new 0 0 12 16;" xml:space="preserve">
<style type="text/css">
	.st0{fill:#FFFFFF;}
</style>
<path class="st0" d="M10,8.4c0-1.1,0.5-2,1.6-2.7C10.9,4.9,10,4.4,8.9,4.4C7.8,4.3,6.6,5,6.1,5C5.6,5,4.6,4.4,3.7,4.4
	C2,4.4,0.1,5.8,0.1,8.5c0,0.8,0.2,1.7,0.4,2.5C1,12.2,2.4,15,3.9,15c0.8,0,1.3-0.6,2.4-0.6c1,0,1.5,0.6,2.4,0.6
	c1.5,0,2.8-2.6,3.2-3.7C9.9,10.3,10,8.5,10,8.4z M8.2,3.3C9,2.3,9,1.3,8.9,1C8.2,1,7.3,1.5,6.8,2.1C6.3,2.7,6,3.5,6,4.3
	C6.8,4.4,7.6,4,8.2,3.3z"/>
</svg>
