<?xml version="1.0" encoding="utf-8"?>
<!-- Generator: Adobe Illustrator 25.4.1, SVG Export Plug-In . SVG Version: 6.00 Build 0)  -->
<svg version="1.1" id="Capa_1" xmlns="http://www.w3.org/2000/svg" xmlns:xlink="http://www.w3.org/1999/xlink" x="0px" y="0px"
	 viewBox="0 0 215.9 178.5" style="enable-background:new 0 0 215.9 178.5;" xml:space="preserve">
<style type="text/css">
	.st0{fill:#E3E8F1;}
</style>
<g>
	<g>
		<path class="st0" d="M0.3,178.2c1.3,0,2.7,0,4,0l0-2c-1.3,0-2.7,0-4,0V178.2z"/>
	</g>
	<g>
		<path class="st0" d="M12.2,177.9c2.6-0.2,5.3-0.4,7.9-0.6l-0.2-2c-2.6,0.2-5.2,0.4-7.8,0.6L12.2,177.9z M28.1,176.4
			c2.6-0.3,5.2-0.8,7.8-1.2l-0.3-2c-2.6,0.4-5.2,0.8-7.8,1.2L28.1,176.4z M43.7,173.6c2.6-0.5,5.2-1.2,7.7-1.8l-0.5-1.9
			c-2.5,0.6-5.1,1.2-7.7,1.8L43.7,173.6z M59.1,169.8c2.5-0.7,5.1-1.5,7.6-2.4l-0.6-1.9c-2.5,0.8-5,1.6-7.5,2.4L59.1,169.8z
			 M74.1,164.7c2.5-0.9,5-1.9,7.4-2.9l-0.8-1.8c-2.4,1-4.9,2-7.3,2.9L74.1,164.7z M88.8,158.6c2.4-1.1,4.8-2.3,7.2-3.5l-0.9-1.8
			c-2.3,1.2-4.7,2.3-7.1,3.4L88.8,158.6z M103,151.4c2.3-1.3,4.6-2.6,6.9-4l-1-1.7c-2.2,1.3-4.5,2.7-6.8,3.9L103,151.4z
			 M116.6,143.2c2.2-1.4,4.4-2.9,6.6-4.5l-1.1-1.6c-2.1,1.5-4.3,3-6.5,4.4L116.6,143.2z M129.6,134c2.1-1.6,4.2-3.2,6.3-4.9
			l-1.3-1.6c-2,1.6-4.1,3.3-6.2,4.9L129.6,134z M142,124c2-1.7,4-3.5,5.9-5.3l-1.4-1.5c-1.9,1.8-3.9,3.6-5.9,5.3L142,124z
			 M153.6,113.2c1.9-1.9,3.7-3.8,5.5-5.7l-1.5-1.4c-1.8,1.9-3.6,3.8-5.5,5.7L153.6,113.2z M164.5,101.6c1.7-2,3.5-4,5.2-6.1
			l-1.5-1.3c-1.7,2-3.4,4-5.1,6L164.5,101.6z M174.6,89.3c1.6-2.1,3.2-4.2,4.7-6.4l-1.6-1.2c-1.5,2.1-3.1,4.3-4.7,6.3L174.6,89.3z
			 M183.9,76.4c1.5-2.2,2.9-4.4,4.3-6.7l-1.7-1.1c-1.4,2.2-2.8,4.4-4.2,6.6L183.9,76.4z M192.2,62.9c1.3-2.3,2.6-4.6,3.8-7l-1.8-0.9
			c-1.2,2.3-2.5,4.6-3.8,6.9L192.2,62.9z M199.6,48.8c1.1-2.4,2.3-4.8,3.3-7.2l-1.8-0.8c-1,2.4-2.1,4.8-3.3,7.2L199.6,48.8z
			 M205.9,34.3c1-2.5,1.9-5,2.8-7.4l-1.9-0.7c-0.9,2.5-1.8,4.9-2.7,7.4L205.9,34.3z M211.1,19.3c0.8-2.5,1.5-5.1,2.2-7.6l-1.9-0.5
			c-0.7,2.5-1.4,5.1-2.1,7.6L211.1,19.3z"/>
	</g>
	<g>
		<path class="st0" d="M215.1,4.1c0.3-1.3,0.6-2.6,0.8-3.9l-2-0.4c-0.3,1.3-0.5,2.6-0.8,3.9L215.1,4.1z"/>
	</g>
</g>
</svg>
