<?xml version="1.0" encoding="utf-8"?>
<!-- Generator: Adobe Illustrator 25.4.1, SVG Export Plug-In . SVG Version: 6.00 Build 0)  -->
<svg version="1.1" id="Capa_1" xmlns="http://www.w3.org/2000/svg" xmlns:xlink="http://www.w3.org/1999/xlink" x="0px" y="0px"
	 viewBox="0 0 215.9 178.5" style="enable-background:new 0 0 215.9 178.5;" xml:space="preserve">
<style type="text/css">
	.st0{fill:#E3E8F1;}
</style>
<g>
	<g>
		<path class="st0" d="M215.9,178.2c-1.3,0-2.7,0-4,0l0-2c1.3,0,2.7,0,4,0V178.2z"/>
	</g>
	<g>
		<path class="st0" d="M204,177.9c-2.6-0.2-5.3-0.4-7.9-0.6l0.2-2c2.6,0.2,5.2,0.4,7.8,0.6L204,177.9z M188.2,176.4
			c-2.6-0.3-5.2-0.8-7.8-1.2l0.3-2c2.6,0.4,5.2,0.8,7.8,1.2L188.2,176.4z M172.5,173.6c-2.6-0.5-5.2-1.2-7.7-1.8l0.5-1.9
			c2.5,0.6,5.1,1.2,7.7,1.8L172.5,173.6z M157.1,169.8c-2.5-0.7-5.1-1.5-7.6-2.4l0.6-1.9c2.5,0.8,5,1.6,7.5,2.4L157.1,169.8z
			 M142.1,164.7c-2.5-0.9-5-1.9-7.4-2.9l0.8-1.8c2.4,1,4.9,2,7.3,2.9L142.1,164.7z M127.4,158.6c-2.4-1.1-4.8-2.3-7.2-3.5l0.9-1.8
			c2.3,1.2,4.7,2.3,7.1,3.4L127.4,158.6z M113.2,151.4c-2.3-1.3-4.6-2.6-6.9-4l1-1.7c2.2,1.3,4.5,2.7,6.8,3.9L113.2,151.4z
			 M99.6,143.2c-2.2-1.4-4.4-2.9-6.6-4.5l1.1-1.6c2.1,1.5,4.3,3,6.5,4.4L99.6,143.2z M86.6,134c-2.1-1.6-4.2-3.2-6.3-4.9l1.3-1.6
			c2,1.6,4.1,3.3,6.2,4.9L86.6,134z M74.2,124c-2-1.7-4-3.5-5.9-5.3l1.4-1.5c1.9,1.8,3.9,3.6,5.9,5.3L74.2,124z M62.6,113.2
			c-1.9-1.9-3.7-3.8-5.5-5.7l1.5-1.4c1.8,1.9,3.6,3.8,5.5,5.7L62.6,113.2z M51.7,101.6c-1.7-2-3.5-4-5.2-6.1l1.5-1.3
			c1.7,2,3.4,4,5.1,6L51.7,101.6z M41.6,89.3c-1.6-2.1-3.2-4.2-4.7-6.4l1.6-1.2c1.5,2.1,3.1,4.3,4.7,6.3L41.6,89.3z M32.3,76.4
			c-1.5-2.2-2.9-4.4-4.3-6.7l1.7-1.1c1.4,2.2,2.8,4.4,4.2,6.6L32.3,76.4z M24,62.9c-1.3-2.3-2.6-4.6-3.8-7L22,55
			c1.2,2.3,2.5,4.6,3.8,6.9L24,62.9z M16.6,48.8c-1.1-2.4-2.3-4.8-3.3-7.2l1.8-0.8c1,2.4,2.1,4.8,3.3,7.2L16.6,48.8z M10.3,34.3
			c-1-2.5-1.9-5-2.8-7.4l1.9-0.7c0.9,2.5,1.8,4.9,2.7,7.4L10.3,34.3z M5.1,19.3c-0.8-2.5-1.5-5.1-2.2-7.6l1.9-0.5
			c0.7,2.5,1.4,5.1,2.1,7.6L5.1,19.3z"/>
	</g>
	<g>
		<path class="st0" d="M1.1,4.1C0.8,2.8,0.5,1.5,0.3,0.2l2-0.4c0.3,1.3,0.5,2.6,0.8,3.9L1.1,4.1z"/>
	</g>
</g>
</svg>
