<?xml version="1.0" encoding="utf-8"?>
<!-- Generator: Adobe Illustrator 25.4.1, SVG Export Plug-In . SVG Version: 6.00 Build 0)  -->
<svg version="1.1" id="Capa_1" xmlns="http://www.w3.org/2000/svg" xmlns:xlink="http://www.w3.org/1999/xlink" x="0px" y="0px"
	 viewBox="0 0 387 255" style="enable-background:new 0 0 387 255;" xml:space="preserve">
<style type="text/css">
	.st0{fill:#352959;}
</style>
<path class="st0" d="M117.1,40.6c1.9-2.3,4-3.9,7.1-2.4c2.4,1.1,3.3,4.2,2,6.5c-1.3,2.4-4.6,3.2-6.9,1.6c-0.8-0.6-1.5-1.4-2.2-2.1
	C117.1,43,117.1,41.8,117.1,40.6z"/>
<path class="st0" d="M284.7,103.2c-2.5-0.1-4.6-2.4-4.6-4.9c0-2.7,2.3-4.8,5-4.7c2.5,0.1,4.7,2.4,4.6,4.8
	C289.8,101,287.4,103.3,284.7,103.2z"/>
<path class="st0" d="M338.8,37.6c2.6,0.1,4.7,2.2,4.7,4.7c0,2.7-2.2,4.8-5,4.7c-2.6-0.1-4.7-2.1-4.7-4.7
	C333.8,39.7,336,37.6,338.8,37.6z"/>
<path class="st0" d="M367.4,53.6c-0.1,2.7-2.4,4.8-5.2,4.6c-2.6-0.2-4.6-2.4-4.5-4.9c0.1-2.5,2.4-4.7,4.8-4.7
	C365.1,48.6,367.5,51,367.4,53.6z"/>
<path class="st0" d="M378,48.7c2.7,0,5,2.2,4.9,4.9c-0.1,2.5-2.2,4.6-4.8,4.6c-2.6,0-4.7-1.9-4.9-4.5
	C373.1,51.1,375.3,48.8,378,48.7z"/>
<path class="st0" d="M258.9,76.1c-0.1,2.7-2.5,4.9-5.1,4.7c-2.5-0.2-4.6-2.4-4.5-5c0-2.5,2.3-4.7,4.8-4.7
	C256.7,71.1,259,73.5,258.9,76.1z"/>
<path class="st0" d="M378,13.5c-2.5-0.1-4.7-2.2-4.7-4.7c0-2.7,2.3-4.9,5-4.8c2.6,0.1,4.7,2.1,4.7,4.7C383,11.3,380.7,13.5,378,13.5
	z"/>
<path class="st0" d="M177.2,13.5c-2.7,0-5-2.2-4.9-4.9c0.1-2.5,2.2-4.6,4.8-4.6c2.7,0,5,2.2,4.9,4.9
	C181.9,11.3,179.7,13.4,177.2,13.5z"/>
<path class="st0" d="M261.3,82.3c2.7,0.1,4.8,2.4,4.7,5.1c-0.1,2.5-2.4,4.7-4.9,4.6c-2.7-0.1-4.9-2.5-4.7-5.1
	C256.6,84.4,258.8,82.3,261.3,82.3z"/>
<path class="st0" d="M274.4,98.3c0,2.7-2.3,4.9-5,4.8c-2.6-0.1-4.6-2.2-4.6-4.8c0-2.6,2.3-4.8,5-4.8
	C272.3,93.6,274.4,95.7,274.4,98.3z"/>
<path class="st0" d="M320.7,98.3c0,2.6-2.3,5-5,4.9c-2.5-0.1-4.6-2.2-4.7-4.8c0-2.8,2.1-4.9,4.9-4.8
	C318.5,93.6,320.7,95.8,320.7,98.3z"/>
<path class="st0" d="M311.6,221.7c0,2.7-2.3,4.9-5,4.8c-2.6-0.1-4.7-2.2-4.7-4.7c0-2.7,2.3-4.9,5-4.8
	C309.5,217,311.6,219.2,311.6,221.7z"/>
<path class="st0" d="M338.2,204.1c-2.6,0.1-5-2.3-4.9-4.9c0-2.6,2.1-4.7,4.7-4.7c2.6-0.1,4.7,1.9,4.9,4.5
	C343,201.6,340.8,204,338.2,204.1z"/>
<path class="st0" d="M265.8,154.3c0.1,2.5-2,4.7-4.6,4.8c-2.8,0.1-5-1.9-5.1-4.6c-0.1-2.7,2.1-4.9,4.9-4.9
	C263.6,149.7,265.8,151.8,265.8,154.3z"/>
<path class="st0" d="M361.9,160.9c2.5,0.1,4.7,2.3,4.8,4.7c0,2.6-2.3,4.9-5,4.8c-2.8-0.1-4.8-2.3-4.7-5
	C357.1,162.9,359.3,160.8,361.9,160.9z"/>
<path class="st0" d="M299.9,183.2c2.7,0,4.9,2.3,4.8,5c-0.1,2.5-2.4,4.7-4.8,4.7c-2.6,0-5-2.4-4.9-5
	C295.1,185.3,297.3,183.2,299.9,183.2z"/>
<path class="st0" d="M361.6,183.2c2.7-0.1,5,2.2,5,4.8c0,2.4-2.2,4.7-4.7,4.8c-2.5,0.1-4.8-2-4.9-4.5
	C356.8,185.6,358.9,183.3,361.6,183.2z"/>
<path class="st0" d="M311.8,199.3c0,2.5-2.1,4.8-4.6,4.9c-2.6,0.1-5-2.3-5-4.9c0-2.6,2.1-4.7,4.6-4.8
	C309.6,194.4,311.8,196.6,311.8,199.3z"/>
<path class="st0" d="M222.8,138.6c2.8-0.1,5,2,5,4.7c0,2.6-2,4.6-4.6,4.7c-2.7,0.1-5-2.1-5.1-4.7
	C218.1,140.8,220.2,138.7,222.8,138.6z"/>
<path class="st0" d="M250.4,131.9c0.1,2.5-2.1,4.7-4.6,4.8c-2.8,0.1-5-2-5.1-4.7c0-2.6,2-4.7,4.6-4.8
	C248,127.2,250.3,129.3,250.4,131.9z"/>
<path class="st0" d="M322.4,204c-2.6,0-4.9-2.5-4.8-5.1c0.1-2.5,2.4-4.6,4.9-4.5c2.7,0,4.9,2.3,4.7,5
	C327.2,202,324.9,204.1,322.4,204z"/>
<path class="st0" d="M315.3,205.8c2.7,0.1,4.8,2.4,4.7,5.1c-0.1,2.5-2.4,4.6-4.9,4.5c-2.5-0.1-4.7-2.3-4.6-4.8
	C310.3,207.8,312.5,205.7,315.3,205.8z"/>
<path class="st0" d="M292.1,114.1c-2.7,0-4.9-2.1-4.9-4.8c0-2.5,2.2-4.6,4.8-4.6c2.7,0,5,2.2,4.9,4.8
	C296.9,112,294.7,114.1,292.1,114.1z"/>
<path class="st0" d="M305.3,98.1c0.1,2.6-2.3,5-4.9,4.9c-2.6,0-4.7-2.1-4.7-4.7c-0.1-2.8,2.1-4.9,4.8-4.9
	C303,93.5,305.2,95.6,305.3,98.1z"/>
<path class="st0" d="M258.9,98.2c0.1,2.6-2.3,5-4.8,5c-2.5,0-4.7-2.2-4.8-4.7c-0.1-2.7,2.1-4.9,4.8-4.9
	C256.7,93.5,258.9,95.6,258.9,98.2z"/>
<path class="st0" d="M199.3,82.3c2.5-0.1,4.8,2,5,4.5c0.2,2.7-2,5.1-4.6,5.2c-2.5,0.1-4.7-1.9-4.9-4.5
	C194.5,84.7,196.5,82.5,199.3,82.3z"/>
<path class="st0" d="M326.6,75.8c0-2.6,2.1-4.7,4.6-4.8c2.6-0.1,5,2.2,4.9,4.9c-0.2,2.9-1.9,4.5-4.7,4.8
	C328.9,81,326.6,78.5,326.6,75.8z"/>
<path class="st0" d="M316.3,3.9c2.5,0.1,4.6,2.2,4.7,4.8c0,2.7-2.3,4.9-5,4.8c-2.6-0.1-4.6-2.2-4.7-4.8C311.4,6,313.6,3.8,316.3,3.9
	z"/>
<path class="st0" d="M316.1,71.1c2.5,0.1,4.7,2.3,4.7,4.8c0,2.6-2.4,5-5,4.9c-2.6-0.1-4.8-2.5-4.6-5.2
	C311.3,73.1,313.5,71.1,316.1,71.1z"/>
<path class="st0" d="M274.4,75.9c0,2.6-2.4,5-5,4.9c-2.5-0.1-4.7-2.3-4.7-4.8c0-2.5,2.1-4.7,4.6-4.8C272,71,274.4,73.3,274.4,75.9z"
	/>
<path class="st0" d="M367.4,8.7c0,2.5-2.1,4.6-4.7,4.7c-2.7,0.1-5-2.1-5-4.8c0-2.5,2.2-4.6,4.7-4.7C365.2,3.8,367.4,6,367.4,8.7z"/>
<path class="st0" d="M323.7,239.4c2.8-0.1,4.9,2.1,4.9,4.8c0,2.5-2.1,4.6-4.7,4.7c-2.6,0-4.8-1.9-4.9-4.5
	C318.8,241.8,321,239.4,323.7,239.4z"/>
<path class="st0" d="M238.5,71.1c2.7-0.1,4.9,2.2,4.9,4.9c0,2.5-2.2,4.7-4.7,4.8c-2.6,0.1-5-2.3-4.9-4.9
	C233.8,73.4,236,71.1,238.5,71.1z"/>
<path class="st0" d="M212.5,76c0,2.8-2.2,5-4.9,4.8c-2.6-0.1-4.5-2.2-4.5-4.9c0-2.8,2.2-4.9,4.9-4.8C210.5,71.2,212.5,73.3,212.5,76
	z"/>
<path class="st0" d="M331.5,48.6c2.5-0.1,4.8,2,5,4.5c0.2,2.6-2,5-4.7,5.1c-2.7,0.1-5-2.1-5-4.8C326.8,51,329,48.7,331.5,48.6z"/>
<path class="st0" d="M321,53.4c0.1,2.7-2.1,4.9-4.9,4.9c-2.6,0-4.7-2-4.8-4.6c-0.1-2.5,2-4.8,4.5-4.9
	C318.5,48.6,320.9,50.8,321,53.4z"/>
<path class="st0" d="M292.2,47c-2.7,0-5-2.1-4.9-4.8c0.1-2.5,2.2-4.6,4.8-4.7c2.7,0,5,2.2,4.9,4.8C296.9,45,294.9,47,292.2,47z"/>
<path class="st0" d="M215.1,24.8c-2.5-0.1-4.9-2.6-4.7-5.1c0.2-2.6,2.3-4.5,5-4.4c2.6,0.1,4.8,2.2,4.8,4.6
	C220,22.6,217.7,24.8,215.1,24.8z"/>
<path class="st0" d="M250.9,20c0,2.6-2,4.7-4.7,4.7c-2.8,0.1-5-2.1-5-4.8c0-2.7,2.3-4.9,5-4.7C248.8,15.3,250.9,17.4,250.9,20z"/>
<path class="st0" d="M369.7,24.7c-2.7,0-5-2.4-4.8-5c0.1-2.5,2.3-4.6,4.9-4.6c2.7,0,4.9,2.2,4.8,5C374.4,22.7,372.3,24.7,369.7,24.7
	z"/>
<path class="st0" d="M284.8,35.8c-2.6-0.1-4.7-2.1-4.7-4.7c0-2.7,2.3-4.8,5-4.7c2.5,0.1,4.7,2.2,4.7,4.7
	C289.9,33.8,287.6,35.9,284.8,35.8z"/>
<path class="st0" d="M321.5,233.1c-0.1,2.5-2.2,4.6-4.8,4.6c-2.7,0-4.9-2.2-4.9-4.9c0.1-2.6,2.2-4.6,4.8-4.6
	C319.4,228.2,321.6,230.4,321.5,233.1z"/>
<path class="st0" d="M306,233c0,2.7-2.3,4.8-5,4.7c-2.6-0.1-4.6-2.2-4.6-4.8c0-2.7,2.3-4.8,5.1-4.7C304,228.2,306,230.4,306,233z"/>
<path class="st0" d="M337.7,226.5c-2.6-0.1-4.7-2.2-4.7-4.7c0-2.7,2.2-4.9,4.9-4.8c2.6,0.1,4.7,2.2,4.7,4.7
	C342.7,224.3,340.4,226.5,337.7,226.5z"/>
<path class="st0" d="M312.4,42.3c0.1,2.6-2,4.7-4.6,4.8c-2.8,0.1-5-1.9-5.1-4.6c-0.1-2.6,1.9-4.7,4.6-4.8
	C310.1,37.5,312.4,39.6,312.4,42.3z"/>
<path class="st0" d="M364.1,199.2c0-2.7,2.4-4.9,5.1-4.7c2.5,0.1,4.7,2.4,4.6,4.9c-0.1,2.6-2.6,5-5.1,4.8
	C366.3,204,364.1,201.6,364.1,199.2z"/>
<path class="st0" d="M358.3,199c0,2.7-2.2,5-4.8,5c-2.7,0-5-2.3-4.8-5c0.3-2.8,1.9-4.4,4.8-4.5C356,194.5,358.3,196.6,358.3,199z"/>
<path class="st0" d="M245.3,204.1c-2.7,0-4.8-2.2-4.7-5c0.1-2.6,2.1-4.6,4.7-4.7c2.7,0,4.9,2.3,4.8,5
	C249.9,202,247.8,204.1,245.3,204.1z"/>
<path class="st0" d="M290,53.5c0,2.8-2.1,4.9-4.9,4.8c-2.6-0.1-4.7-2.1-4.7-4.7c0-2.7,2.2-4.9,4.9-4.8C287.9,48.8,290,50.9,290,53.5
	z"/>
<path class="st0" d="M305.4,53.3c0.1,2.7-2.1,4.9-4.8,4.9c-2.6,0-4.7-2.1-4.8-4.6c-0.1-2.6,2.2-5,4.9-5
	C303.2,48.7,305.4,50.8,305.4,53.3z"/>
<path class="st0" d="M341.5,188c0-2.6,2.4-4.9,5-4.8c2.4,0.1,4.7,2.4,4.7,4.8c0,2.4-2.7,5-5,4.9C343.8,192.8,341.5,190.4,341.5,188z
	"/>
<path class="st0" d="M330.8,192.8c-2.5,0-4.7-2.2-4.8-4.7c-0.1-2.6,2.2-5,4.8-5c2.6,0,4.7,2.1,4.8,4.6
	C335.8,190.4,333.4,192.8,330.8,192.8z"/>
<path class="st0" d="M315.5,183.2c2.5,0.1,4.6,2.3,4.6,4.8c0,2.7-2.4,5-5,4.9c-2.5-0.1-4.7-2.4-4.7-4.8
	C310.5,185.5,312.9,183.1,315.5,183.2z"/>
<path class="st0" d="M250.4,154.6c-0.1,2.7-2.4,4.7-5.2,4.6c-2.6-0.2-4.6-2.3-4.5-4.8c0.1-2.7,2.3-4.7,5.1-4.6
	C248.4,150,250.5,152.1,250.4,154.6z"/>
<path class="st0" d="M215.3,60c2.6,0.1,4.9,2.6,4.7,5.2c-0.2,2.4-2.6,4.5-5,4.4c-2.5-0.1-4.7-2.3-4.7-4.8
	C210.3,62.1,212.7,59.9,215.3,60z"/>
<path class="st0" d="M230.8,69.5c-2.5,0.1-4.9-2.1-5-4.5c-0.1-2.7,2.1-5.1,4.8-5.1c2.5,0,4.7,2.2,4.8,4.7
	C235.4,67.1,233.2,69.4,230.8,69.5z"/>
<path class="st0" d="M323.2,69.5c-2.6-0.1-4.9-2.5-4.7-5.1c0.1-2.5,2.5-4.6,4.9-4.5c2.6,0.1,4.8,2.5,4.7,5.1
	C327.9,67.5,325.7,69.5,323.2,69.5z"/>
<path class="st0" d="M354.4,59.8c2.6,0.1,4.8,2.5,4.6,5.2c-0.2,2.5-2.5,4.6-4.9,4.5c-2.5-0.1-4.7-2.3-4.7-4.8
	C349.3,62.2,351.8,59.8,354.4,59.8z"/>
<path class="st0" d="M222.9,125.5c-2.7,0-5-2.3-4.8-5c0.1-2.5,2.3-4.6,4.9-4.5c2.7,0,4.9,2.3,4.8,5
	C227.7,123.6,225.6,125.5,222.9,125.5z"/>
<path class="st0" d="M307.5,104.7c2.6-0.1,4.8,2,4.9,4.5c0.2,2.6-2.1,5-4.8,5c-2.7,0.1-5-2.1-4.9-4.8
	C302.8,106.8,304.9,104.8,307.5,104.7z"/>
<path class="st0" d="M343.4,87.1c0.1,2.5-2.4,5-4.9,5c-2.4,0-4.7-2.3-4.7-4.8c-0.1-2.5,2-4.8,4.6-4.9
	C340.9,82.2,343.4,84.5,343.4,87.1z"/>
<path class="st0" d="M347.4,13.6c-2.6,0.1-5-2.2-5-4.8c0-2.5,2.1-4.7,4.6-4.8c2.7-0.1,4.9,2,5,4.8C352,11.2,349.8,13.4,347.4,13.6z"
	/>
<path class="st0" d="M289.8,75.9c0,2.6-2.4,5-5,4.9c-2.5-0.1-4.7-2.3-4.7-4.8c0-2.7,2.2-5,4.9-4.9C287.6,71.2,289.8,73.4,289.8,75.9
	z"/>
<path class="st0" d="M300.3,80.8c-2.6-0.1-4.9-2.5-4.7-5.1c0.2-2.5,2.4-4.6,4.9-4.5c2.6,0.1,4.9,2.6,4.7,5.1
	C305,78.7,302.7,80.8,300.3,80.8z"/>
<path class="st0" d="M322.9,92c-2.7-0.1-4.9-2.5-4.7-5.1c0.2-2.6,2.4-4.6,4.9-4.5c2.7,0.1,4.9,2.5,4.7,5.1
	C327.7,89.9,325.3,92.1,322.9,92z"/>
<path class="st0" d="M312.4,87.3c-0.1,2.6-2.6,4.9-5.1,4.7c-2.5-0.2-4.6-2.5-4.5-5c0.1-2.7,2.5-4.9,5.1-4.7
	C310.4,82.5,312.5,84.8,312.4,87.3z"/>
<path class="st0" d="M292,92c-2.6,0-4.9-2.4-4.8-5.1c0.1-2.5,2.3-4.6,4.9-4.6c2.6,0,5,2.4,4.8,5C296.8,89.8,294.5,92,292,92z"/>
<path class="st0" d="M276.6,92.1c-2.7,0-4.9-2.4-4.8-5.1c0.1-2.5,2.3-4.7,4.9-4.6c2.7,0,4.9,2.4,4.8,5.1
	C281.3,89.9,279,92.1,276.6,92.1z"/>
<path class="st0" d="M241,87.1c0.1-2.5,2.2-4.7,4.7-4.7c2.7,0,4.8,2.2,4.8,5c-0.1,2.5-2.2,4.7-4.7,4.7C243.2,92.1,241,89.8,241,87.1
	z"/>
<path class="st0" d="M219.6,87.2c0,2.8-2.2,5-4.9,4.8c-2.5-0.1-4.6-2.3-4.5-4.9c0-2.8,2.2-4.9,4.9-4.8
	C217.7,82.5,219.6,84.6,219.6,87.2z"/>
<path class="st0" d="M192.5,13.6c-2.5,0-4.7-2.2-4.7-4.7c0-2.7,2.2-4.9,4.9-4.9c2.5,0,4.8,2.2,4.8,4.6
	C197.3,11.2,194.9,13.6,192.5,13.6z"/>
<path class="st0" d="M223.5,13.6c-2.5,0-4.7-2.1-4.7-4.6c0-2.7,2.2-5,4.8-5c2.5,0,4.7,2.2,4.8,4.7C228.4,11.2,226.2,13.5,223.5,13.6
	z"/>
<path class="st0" d="M184.1,15.2c2.7-0.1,4.7,1.8,4.8,4.5c0.2,2.7-1.7,4.7-4.4,4.8c-3,0.1-5.1-1.8-5.1-4.6
	C179.4,17.4,181.5,15.3,184.1,15.2z"/>
<path class="st0" d="M285.2,3.9c2.7,0,4.9,2.2,4.8,4.9c-0.1,2.6-2.2,4.7-4.7,4.7c-2.7,0-4.9-2.3-4.8-5
	C280.6,5.9,282.6,3.9,285.2,3.9z"/>
<path class="st0" d="M336.5,8.6c0,2.5-2.1,4.7-4.6,4.8c-2.7,0.1-5-2-5.1-4.7c0-2.5,2.1-4.7,4.6-4.8C334.1,3.8,336.5,5.9,336.5,8.6z"
	/>
<path class="st0" d="M223.3,80.8c-2.5,0.1-4.7-2-4.8-4.6c-0.1-2.8,1.9-5,4.6-5.1c2.6-0.1,4.7,1.9,4.8,4.6
	C228.1,78.5,226,80.8,223.3,80.8z"/>
<path class="st0" d="M365.8,31.6c-0.1,2.4-2.3,4.6-4.8,4.6c-2.6,0-4.9-2.4-4.8-5c0.1-2.5,2.3-4.6,4.8-4.6
	C363.6,26.6,365.9,29,365.8,31.6z"/>
<path class="st0" d="M381.3,31.6c-0.1,2.5-2.2,4.7-4.7,4.7c-2.6,0-4.9-2.3-4.9-4.9c0-2.6,2.5-4.9,5-4.7
	C379.3,26.8,381.3,29.1,381.3,31.6z"/>
<path class="st0" d="M308.2,248.9c-2.6-0.1-4.7-2.1-4.7-4.7c0-2.6,2.3-4.9,5-4.8c2.7,0.1,4.7,2.1,4.7,4.7
	C313.2,246.9,311,249,308.2,248.9z"/>
<path class="st0" d="M291.3,216.9c2.7,0,4.9,2.3,4.8,5c-0.1,2.6-2.2,4.5-4.9,4.5c-2.6,0-4.7-2.1-4.8-4.6
	C286.4,219.1,288.6,216.9,291.3,216.9z"/>
<path class="st0" d="M137.4,37.6c2.7,0,4.8,1.9,4.9,4.5c0.1,2.7-2.1,5-4.8,4.9c-2.9,0-4.6-1.6-4.8-4.5
	C132.5,39.8,134.6,37.7,137.4,37.6z"/>
<path class="st0" d="M304.4,210.5c0,2.6-2.1,4.6-4.7,4.7c-2.7,0-5-2.1-4.9-4.8c0.2-2.9,1.8-4.5,4.6-4.7
	C302.2,205.6,304.4,207.8,304.4,210.5z"/>
<path class="st0" d="M258.1,210.7c-0.1,2.6-2.2,4.6-4.8,4.6c-2.7,0-5-2.4-4.8-4.9c0.1-2.5,2.4-4.6,4.9-4.6
	C256,205.8,258.2,208,258.1,210.7z"/>
<path class="st0" d="M323,47c-2.8,0-4.9-2.3-4.8-5c0.1-2.5,2.3-4.6,4.9-4.5c2.7,0,4.9,2.4,4.8,5C327.8,45.1,325.6,47.1,323,47z"/>
<path class="st0" d="M347.1,58.3c-2.5,0-4.7-2.1-4.7-4.6c0-2.7,2.2-5,4.8-4.9c2.5,0.1,4.7,2.2,4.7,4.7
	C352,56.1,349.8,58.3,347.1,58.3z"/>
<path class="st0" d="M238.6,103.1c-2.8,0-4.9-2.2-4.8-5c0.1-2.7,2.1-4.6,4.7-4.6c2.8,0,4.9,2.1,4.8,4.9
	C243.3,101,241.2,103.1,238.6,103.1z"/>
<path class="st0" d="M289.2,188.2c0,2.5-2.3,4.7-4.8,4.7c-2.6,0-5-2.5-4.8-5c0.1-2.6,2.3-4.7,4.8-4.7
	C287.1,183.2,289.2,185.5,289.2,188.2z"/>
<path class="st0" d="M230.2,159.2c-2.7,0-5.1-2.2-4.9-4.8c0.2-2.7,1.8-4.5,4.7-4.7c2.6-0.1,5,2.2,4.9,4.8
	C234.8,157,232.7,159.1,230.2,159.2z"/>
<path class="st0" d="M266.2,64.7c0,2.6-2,4.7-4.5,4.8c-2.7,0.1-5-2.1-5-4.8c0-2.7,2.3-4.9,4.9-4.9C264.2,60,266.2,62.1,266.2,64.7z"
	/>
<path class="st0" d="M281.6,64.7c0,2.6-1.9,4.7-4.5,4.8c-2.7,0.1-5-2.1-4.9-4.8c0-3,1.8-4.5,4.5-4.8C279.3,59.7,281.6,62,281.6,64.7
	z"/>
<path class="st0" d="M374.5,64.8c0,2.5-2.2,4.7-4.6,4.8c-2.6,0.1-5-2.3-5-4.8c0-2.5,2.2-4.7,4.7-4.8
	C372.2,59.8,374.5,62.1,374.5,64.8z"/>
<path class="st0" d="M281.5,109.5c0,2.5-2.1,4.7-4.6,4.8c-2.7,0.1-5.1-2.1-5-4.7c0-2.5,2.1-4.7,4.7-4.8
	C279.2,104.6,281.4,106.8,281.5,109.5z"/>
<path class="st0" d="M168.6,15.2c2.8-0.1,4.9,2.1,4.9,4.8c0,2.6-2,4.6-4.7,4.7c-2.8,0.1-5-2.1-4.9-4.8C164,17.3,166,15.2,168.6,15.2
	z"/>
<path class="st0" d="M230.6,15.1c2.7,0,4.9,2.3,4.7,5c-0.1,2.5-2.2,4.6-4.8,4.5c-2.7,0-4.9-2.3-4.7-5
	C225.9,17.1,228.1,15.1,230.6,15.1z"/>
<path class="st0" d="M339.5,239.4c2.6,0.1,4.7,2.1,4.7,4.7c0,2.8-2.2,4.9-5,4.8c-2.5-0.1-4.7-2.2-4.7-4.7
	C334.5,241.6,336.8,239.4,339.5,239.4z"/>
<path class="st0" d="M354.8,239.3c2.7,0,5.1,2.4,4.8,5c-0.3,2.7-1.8,4.5-4.8,4.5c-2.7,0-4.9-2.2-4.8-4.9
	C350.1,241.3,352.2,239.3,354.8,239.3z"/>
<path class="st0" d="M347.7,228.2c2.5,0,4.7,2.1,4.7,4.7c0.1,2.7-2.2,4.9-4.9,4.8c-2.5-0.1-4.6-2.2-4.7-4.7
	C342.8,230.3,345,228.2,347.7,228.2z"/>
<path class="st0" d="M212.3,120.6c0.1,2.6-1.9,4.7-4.5,4.8c-2.8,0.1-5.1-1.9-5.1-4.6c0-2.5,2-4.7,4.6-4.9
	C210,115.8,212.2,117.9,212.3,120.6z"/>
<path class="st0" d="M238.5,116c2.6,0.1,4.7,2.2,4.7,4.7c0,2.6-2.4,4.8-5,4.7c-2.6-0.1-4.6-2.2-4.6-4.7
	C233.5,118,235.7,115.9,238.5,116z"/>
<path class="st0" d="M258.7,120.9c-0.1,2.7-2.4,4.8-5.1,4.7c-2.6-0.1-4.6-2.3-4.5-4.9c0.1-2.7,2.3-4.8,5.1-4.6
	C256.7,116.2,258.8,118.4,258.7,120.9z"/>
<path class="st0" d="M158.1,19.9c0,2.7-2.2,5-4.8,4.9c-2.6,0-4.7-2.1-4.7-4.7c0-2.8,2-4.9,4.8-4.9C156,15.2,158,17.2,158.1,19.9z"/>
<path class="st0" d="M343.6,64.7c0,2.7-2.1,4.9-4.9,4.9c-2.6-0.1-4.6-2.1-4.6-4.7c0-2.6,1.9-4.8,4.5-4.9
	C341.2,59.8,343.6,62,343.6,64.7z"/>
<path class="st0" d="M322.4,216.9c2.6,0.1,4.7,2.2,4.7,4.7c0,2.7-2.3,4.9-5,4.8c-2.6-0.1-4.6-2.2-4.6-4.7
	C317.4,218.9,319.6,216.8,322.4,216.9z"/>
<path class="st0" d="M312.6,64.7c0,2.7-2.2,4.9-4.9,4.8c-2.6-0.1-4.6-2.1-4.6-4.7c0-2.7,2.2-4.9,4.9-4.9
	C310.5,60,312.6,62.1,312.6,64.7z"/>
<path class="st0" d="M300.6,35.8c-2.7,0.1-4.8-1.8-5-4.4c-0.2-2.7,2-4.9,4.8-5c2.6,0,4.8,2.1,4.9,4.6
	C305.4,33.5,303.2,35.7,300.6,35.8z"/>
<path class="st0" d="M230,136.7c-2.5,0-4.7-2.1-4.8-4.6c-0.1-2.6,2.2-4.9,4.9-4.8c2.7,0,4.9,2.3,4.7,5
	C234.7,134.7,232.6,136.7,230,136.7z"/>
<path class="st0" d="M354.4,24.6c-2.7,0.1-5-2.1-5-4.8c0-2.5,2.2-4.6,4.8-4.7c2.8-0.1,4.9,2.1,4.9,4.8C359,22.5,357,24.5,354.4,24.6
	z"/>
<path class="st0" d="M246,69.5c-2.5,0-4.7-2.1-4.8-4.6c-0.1-2.7,2.1-5,4.8-5c2.5,0,4.7,2.1,4.8,4.6C251,67.2,248.7,69.5,246,69.5z"
	/>
<path class="st0" d="M223.5,58.3c-2.7,0-4.7-1.9-4.8-4.5c-0.1-2.8,1.9-5,4.7-5c2.6,0,4.8,1.9,4.9,4.5
	C228.4,56,226.3,58.2,223.5,58.3z"/>
<path class="st0" d="M243.2,143.2c0,2.5-2.1,4.6-4.7,4.7c-2.9,0.1-4.9-1.9-5-4.7c0-2.7,2.2-4.8,5-4.7
	C241.1,138.6,243.2,140.7,243.2,143.2z"/>
<path class="st0" d="M268.6,205.8c2.8,0,5,2,5,4.7c0,2.5-2.1,4.6-4.7,4.7c-2.7,0.1-4.9-2-4.9-4.8
	C263.9,207.9,266.1,205.8,268.6,205.8z"/>
<path class="st0" d="M358.8,42.3c0,2.7-2.3,4.8-5.1,4.7c-2.6-0.1-4.6-2.2-4.6-4.8c0-2.7,2.3-4.8,5-4.7
	C356.8,37.7,358.8,39.8,358.8,42.3z"/>
<path class="st0" d="M369.6,37.6c2.7,0,4.7,2,4.7,4.6c0.1,2.7-2.1,4.9-4.9,4.8c-2.7,0-4.7-2-4.7-4.6
	C364.6,39.7,366.7,37.6,369.6,37.6z"/>
<path class="st0" d="M300.7,3.9c2.7,0,4.9,2.3,4.7,5c-0.1,2.6-2.2,4.6-4.8,4.5c-2.8,0-4.9-2.2-4.8-5C296,5.9,298.1,3.8,300.7,3.9z"
	/>
<path class="st0" d="M243.6,53.5c0,2.6-1.9,4.7-4.6,4.8c-2.8,0.1-4.9-1.9-4.9-4.7c0-2.7,2.2-4.9,4.9-4.9
	C241.5,48.7,243.6,50.9,243.6,53.5z"/>
<path class="st0" d="M227.9,98.3c0,2.7-2.3,5-4.9,4.9c-2.5-0.1-4.5-2.2-4.5-4.9c0-2.7,1.9-4.7,4.5-4.8
	C225.9,93.5,227.9,95.5,227.9,98.3z"/>
<path class="st0" d="M242.8,188c0,2.6-2.1,4.8-4.6,4.8c-2.7,0.1-4.9-2.2-4.8-4.9c0-2.7,2-4.7,4.6-4.8
	C240.7,183.1,242.8,185.2,242.8,188z"/>
<path class="st0" d="M259.2,8.7c0,2.7-2.3,5-4.9,4.9c-2.5-0.1-4.6-2.3-4.6-4.8c0-2.7,2.2-4.9,4.9-4.8C257.1,4,259.1,6.1,259.2,8.7z"
	/>
<path class="st0" d="M289.2,165.9c-0.1,2.8-2.3,4.8-5.1,4.6c-2.5-0.1-4.6-2.4-4.6-4.8c0.1-2.6,2.4-4.7,5.2-4.6
	C287.4,161.2,289.3,163.2,289.2,165.9z"/>
<path class="st0" d="M296.3,176.9c0,2.4-2.3,4.8-4.7,4.8c-2.7,0.1-5-2.3-4.9-5c0.1-2.6,2.3-4.7,4.8-4.6
	C294.2,172.2,296.3,174.3,296.3,176.9z"/>
<path class="st0" d="M327.3,177.1c-0.1,2.5-2.3,4.6-4.8,4.6c-2.6,0-5-2.4-4.8-5c0.1-2.4,2.4-4.6,4.8-4.6
	C325.2,172.1,327.4,174.4,327.3,177.1z"/>
<path class="st0" d="M342.8,177.1c-0.1,2.7-2.3,4.8-5.1,4.6c-2.4-0.1-4.6-2.5-4.5-4.9c0.1-2.7,2.5-4.8,5.1-4.6
	C340.9,172.4,342.9,174.5,342.8,177.1z"/>
<path class="st0" d="M353.5,181.7c-2.4,0.1-4.8-2.1-4.9-4.5c-0.2-2.6,2.1-5,4.7-5.1c2.4,0,4.8,2.1,4.9,4.6
	C358.4,179.2,356.1,181.6,353.5,181.7z"/>
<path class="st0" d="M235,87.3c-0.1,2.5-2.3,4.7-4.7,4.7c-2.6,0-4.8-2.3-4.7-5.1c0.1-2.6,2.1-4.6,4.7-4.6
	C233,82.3,235.1,84.6,235,87.3z"/>
<path class="st0" d="M273.8,165.8c0,2.8-2.1,4.8-5,4.7c-2.6-0.1-4.5-2.1-4.5-4.8c0-2.8,2.2-4.9,5-4.7
	C271.8,161,273.8,163.1,273.8,165.8z"/>
<path class="st0" d="M274.6,8.5c0.1,2.6-1.8,4.8-4.4,4.9c-2.8,0.2-5-1.8-5.1-4.6c-0.1-2.7,2-4.9,4.8-4.9
	C272.5,3.9,274.5,5.9,274.6,8.5z"/>
<path class="st0" d="M274.5,53.5c0,2.8-2.1,4.8-4.9,4.8c-2.6-0.1-4.5-2.1-4.5-4.8c0-2.7,2.2-4.9,4.9-4.8
	C272.6,48.8,274.6,50.9,274.5,53.5z"/>
<path class="st0" d="M281.2,154.5c0,2.7-2.2,4.9-5,4.7c-2.9-0.2-4.5-1.8-4.6-4.7c-0.1-2.8,2.1-4.8,4.9-4.8
	C279.1,149.8,281.2,151.9,281.2,154.5z"/>
<path class="st0" d="M353.6,149.6c2.5-0.1,4.7,2,4.8,4.5c0.1,2.8-1.8,4.9-4.7,5c-2.7,0.1-4.7-1.8-4.8-4.5
	C348.8,151.9,350.8,149.7,353.6,149.6z"/>
<path class="st0" d="M320.3,143.3c0,2.7-2,4.6-4.7,4.6c-2.8,0-4.8-2-4.7-4.9c0.1-2.7,2.1-4.6,4.8-4.5
	C318.5,138.6,320.4,140.6,320.3,143.3z"/>
<path class="st0" d="M281.5,42.5c-0.1,2.7-2.3,4.8-5.1,4.6c-2.6-0.1-4.6-2.3-4.6-4.8c0.1-2.6,2.1-4.6,4.8-4.6
	C279.4,37.6,281.5,39.7,281.5,42.5z"/>
<path class="st0" d="M304.8,143.1c0,2.7-1.8,4.7-4.5,4.8c-2.9,0.1-4.9-1.9-4.9-4.8c0-2.7,2-4.6,4.7-4.6
	C302.8,138.5,304.8,140.4,304.8,143.1z"/>
<path class="st0" d="M350.8,210.4c0.1,2.6-1.9,4.8-4.5,4.9c-2.5,0.1-4.8-2-4.9-4.5c-0.1-2.7,2-5,4.7-5
	C348.7,205.7,350.7,207.7,350.8,210.4z"/>
<path class="st0" d="M284.6,148c-2.7,0-4.6-1.9-4.6-4.7c0-2.7,1.9-4.7,4.6-4.7c2.8-0.1,4.9,2,4.8,4.8
	C289.3,146.1,287.3,148,284.6,148z"/>
<path class="st0" d="M258.7,143.4c-0.1,2.7-2.4,4.8-5.1,4.6c-2.9-0.2-4.4-1.9-4.5-4.8c-0.1-2.7,2.2-4.7,5-4.6
	C256.7,138.7,258.8,140.9,258.7,143.4z"/>
<path class="st0" d="M245.8,37.7c2.8,0,4.9,2.1,4.8,4.8c-0.1,2.6-2,4.6-4.7,4.6c-2.8,0-4.9-2-4.8-4.8
	C241.1,39.6,243.1,37.7,245.8,37.7z"/>
<path class="st0" d="M254.2,35.9c-2.7,0-4.7-1.9-4.8-4.5c-0.1-2.6,1.9-4.7,4.5-4.9c2.7-0.1,5,2,5,4.7
	C258.9,33.8,256.9,35.8,254.2,35.9z"/>
<path class="st0" d="M327.5,132c0,2.7-1.9,4.6-4.6,4.7c-2.8,0.1-4.9-1.9-4.8-4.8c0.1-2.9,1.7-4.5,4.5-4.7
	C325.4,127,327.5,129.2,327.5,132z"/>
<path class="st0" d="M214.6,136.7c-2.6,0-4.7-2-4.8-4.6c-0.1-2.7,2.1-4.9,4.8-4.9c2.8,0,4.8,2.1,4.7,4.9
	C219.3,134.8,217.3,136.8,214.6,136.7z"/>
<path class="st0" d="M292.4,69.5c-2.5,0-4.7-2.1-4.8-4.6c-0.1-2.7,2-5,4.7-5.1c2.6,0,4.9,2.3,4.8,5C297,67.3,294.9,69.5,292.4,69.5z
	"/>
<path class="st0" d="M316.1,26.4c2.5,0.1,4.7,2.2,4.7,4.7c0,2.6-2.3,4.8-5,4.7c-2.6-0.1-4.6-2.1-4.6-4.7
	C311.1,28.5,313.3,26.4,316.1,26.4z"/>
<path class="st0" d="M368.5,226.5c-2.7-0.1-4.7-2.3-4.6-5.1c0.1-2.7,2.1-4.5,4.8-4.4c2.6,0.1,4.6,2.1,4.7,4.7
	C373.5,224.3,371.2,226.5,368.5,226.5z"/>
<path class="st0" d="M323.2,15.1c2.8-0.1,4.9,2,4.9,4.8c0,2.6-2,4.6-4.6,4.7c-2.8,0.1-5-2-4.9-4.8C318.5,17.3,320.6,15.2,323.2,15.1
	z"/>
<path class="st0" d="M300.2,115.9c2.8,0,4.8,2.1,4.7,4.9c-0.1,2.7-2.1,4.6-4.7,4.6c-2.8,0-4.8-2.1-4.7-4.9
	C295.5,117.8,297.5,115.9,300.2,115.9z"/>
<path class="st0" d="M269.3,116c2.7,0,5,2.2,4.9,4.9c-0.1,2.5-2.2,4.6-4.8,4.6c-2.8,0-4.9-2.1-4.8-4.9
	C264.6,117.9,266.6,116,269.3,116z"/>
<path class="st0" d="M337,232.8c0,2.5-2,4.7-4.6,4.8c-2.8,0.1-5-2-5-4.7c0-2.7,2.2-4.9,4.9-4.8C334.8,228.2,336.9,230.4,337,232.8z"
	/>
<path class="st0" d="M297.1,20c-0.1,2.8-2.3,4.8-5.1,4.6c-2.6-0.2-4.5-2.2-4.5-4.9c0.1-2.8,2.3-4.8,5.1-4.6
	C295.3,15.3,297.2,17.4,297.1,20z"/>
<path class="st0" d="M375.1,244.1c0.1,2.5-2.1,4.7-4.6,4.8c-2.8,0.1-5-2-5-4.7c0-2.6,2-4.7,4.6-4.8
	C372.7,239.3,375,241.5,375.1,244.1z"/>
<path class="st0" d="M281.6,20.2c-0.1,2.6-2.2,4.6-4.8,4.5c-2.7-0.1-4.8-2.3-4.7-5c0.1-2.8,2.3-4.7,5.2-4.5
	C279.9,15.4,281.7,17.5,281.6,20.2z"/>
<path class="st0" d="M235,109.5c0,2.6-2.1,4.7-4.7,4.7c-2.6,0-4.7-2-4.7-4.6c0-2.9,2-4.9,4.8-4.9C233.1,104.8,235.1,106.9,235,109.5
	z"/>
<path class="st0" d="M250.5,109.6c-0.1,2.8-2.2,4.7-5.1,4.6c-2.6-0.1-4.5-2.2-4.4-4.9c0.1-2.6,2.1-4.6,4.7-4.6
	C248.5,104.7,250.6,106.8,250.5,109.6z"/>
<path class="st0" d="M378.8,237.7c-2.9,0.1-4.9-1.9-4.9-4.7c0-2.7,1.8-4.7,4.5-4.8c2.8-0.1,5,1.9,5,4.7
	C383.4,235.5,381.4,237.6,378.8,237.7z"/>
<path class="st0" d="M367.9,233c-0.1,2.7-2.3,4.8-5.1,4.6c-2.6-0.1-4.5-2.2-4.4-4.9c0.1-2.8,2.2-4.8,5-4.6
	C366,228.3,367.9,230.4,367.9,233z"/>
<path class="st0" d="M331.4,26.4c2.6,0,4.8,2,4.9,4.6c0,2.5-2.1,4.7-4.6,4.8c-2.9,0.1-5-1.9-5-4.7C326.7,28.4,328.7,26.4,331.4,26.4
	z"/>
<path class="st0" d="M358,221.7c0,2.6-2.1,4.6-4.7,4.6c-2.8,0-4.9-2-4.8-4.9c0.1-2.9,1.8-4.5,4.7-4.6C355.9,216.8,358,219,358,221.7
	z"/>
<path class="st0" d="M269.6,35.8c-2.7,0-5-2.2-4.9-4.8c0.1-2.4,2.3-4.6,4.8-4.6c2.9,0,4.5,1.7,4.8,4.5
	C274.7,33.6,272.4,35.7,269.6,35.8z"/>
<path class="st0" d="M215,37.7c2.6,0,4.7,2,4.7,4.6c0.1,2.7-2.1,4.8-4.9,4.8c-2.7,0-4.6-1.9-4.7-4.6C210.1,39.7,212.2,37.6,215,37.7
	z"/>
<path class="st0" d="M266.3,19.7c0.1,2.6-1.9,4.7-4.5,4.9c-2.8,0.2-5-1.8-5.1-4.6c-0.1-2.6,1.8-4.7,4.4-4.9
	C263.9,15,266.2,17,266.3,19.7z"/>
<path class="st0" d="M261.3,37.6c2.7,0,4.9,2.2,4.8,4.9c-0.2,2.9-1.8,4.4-4.7,4.5c-2.8,0.1-4.9-2.1-4.8-4.9
	C256.6,39.6,258.6,37.6,261.3,37.6z"/>
<path class="st0" d="M377.1,215.2c-2.6,0-4.7-2-4.8-4.6c-0.1-2.7,1.8-4.8,4.5-4.9c2.8-0.1,4.9,2,4.9,4.8
	C381.7,213.1,379.7,215.2,377.1,215.2z"/>
<path class="st0" d="M289.4,120.9c-0.1,2.7-2,4.6-4.6,4.6c-2.9-0.1-4.7-1.9-4.7-4.9c0-2.6,2-4.6,4.7-4.6
	C287.5,116,289.5,118,289.4,120.9z"/>
<path class="st0" d="M208.1,13.2c-2.7,0.1-4.8-1.8-4.9-4.4c0-2.5,2.4-4.8,5-4.8c2.6,0,4.7,2.1,4.7,4.6
	C212.9,11.1,210.7,13.2,208.1,13.2z"/>
<path class="st0" d="M254.5,58.3c-2.7,0.1-4.7-1.8-4.9-4.4c-0.2-2.8,1.9-5,4.6-5.1c2.8-0.1,4.9,2,4.9,4.8
	C259.1,56.2,257.1,58.2,254.5,58.3z"/>
<path class="st0" d="M253.5,161c2.6-0.1,4.7,1.8,4.8,4.5c0.1,2.8-1.7,4.9-4.6,5c-2.7,0.1-4.7-1.7-4.8-4.4
	C248.8,163.3,250.7,161.1,253.5,161z"/>
<path class="st0" d="M243.6,8.8c-0.1,2.6-2.1,4.6-4.7,4.6c-2.8,0-4.9-2.2-4.8-4.9c0.1-2.6,2.1-4.6,4.7-4.6
	C241.7,3.9,243.7,6,243.6,8.8z"/>
<path class="st0" d="M338.5,159.2c-2.9-0.1-4.6-1.5-4.8-4.4c-0.2-2.8,1.8-5,4.5-5c2.8-0.1,5,2,4.9,4.8
	C342.9,157.4,341.3,158.9,338.5,159.2z"/>
<path class="st0" d="M312,154.8c0,2.6-2.1,4.6-4.8,4.4c-2.9-0.1-4.5-1.7-4.6-4.6c-0.1-2.6,2-4.8,4.5-4.8
	C310.1,149.7,312,151.7,312,154.8z"/>
<path class="st0" d="M212.5,98.3c0,2.6-2,4.7-4.6,4.7c-2.7,0.1-5-2.1-4.8-4.8c0.1-2.9,1.7-4.5,4.6-4.7
	C210.4,93.4,212.5,95.5,212.5,98.3z"/>
<path class="st0" d="M312,131.8c0.1,2.6-1.8,4.7-4.4,4.9c-2.8,0.2-5-1.8-5-4.6c0-2.9,1.5-4.6,4.4-4.8C309.8,127,312,129.1,312,131.8
	z"/>
<path class="st0" d="M338.9,15.2c2.7,0,4.8,2.2,4.8,4.9c-0.1,2.6-2.1,4.6-4.7,4.6c-2.6,0-4.7-2-4.7-4.6
	C334.1,17.3,336.1,15.2,338.9,15.2z"/>
<path class="st0" d="M312.6,19.8c0.1,2.8-1.9,4.9-4.7,4.9c-2.6,0-4.7-2-4.7-4.6c-0.1-2.6,1.8-4.8,4.4-4.9
	C310.3,15,312.5,17,312.6,19.8z"/>
<path class="st0" d="M243.4,31c0.1,2.6-1.9,4.7-4.6,4.8c-2.8,0.1-5-2-5-4.8c0-2.5,2.2-4.6,4.8-4.6C241.3,26.4,243.4,28.4,243.4,31z"
	/>
<path class="st0" d="M235.1,42.4c-0.1,2.7-2,4.6-4.7,4.6c-2.8,0-4.8-2.1-4.7-5c0.1-2.6,2.2-4.6,4.8-4.5
	C233.1,37.7,235.1,39.8,235.1,42.4z"/>
<path class="st0" d="M361.5,215.1c-2.7,0-4.7-1.9-4.7-4.6c0-2.9,2-4.9,4.9-4.8c2.7,0.1,4.6,2.1,4.5,4.8
	C366.2,213.2,364.2,215.1,361.5,215.1z"/>
<path class="st0" d="M145.8,35.8c-2.7,0-4.7-2-4.7-4.7c0-2.8,2.2-4.9,5-4.7c2.6,0.1,4.6,2.2,4.5,4.8
	C150.5,33.9,148.4,35.9,145.8,35.8z"/>
<path class="st0" d="M166.2,31.2c0,2.5-2.2,4.6-4.8,4.6c-2.8,0-4.9-2.1-4.8-4.9c0.1-2.6,2.3-4.6,4.9-4.5
	C164.1,26.5,166.3,28.8,166.2,31.2z"/>
<path class="st0" d="M228,31.7c-0.2,2.6-2.4,4.4-5.1,4.1c-2.7-0.2-4.4-2.2-4.2-5c0.2-2.8,2.5-4.7,5.3-4.3
	C226.5,26.8,228.2,29,228,31.7z"/>
<path class="st0" d="M214.8,114.2c-2.8,0-4.8-2.2-4.6-5c0.2-2.9,1.9-4.4,4.8-4.5c2.6-0.1,4.6,2,4.7,4.6
	C219.7,112.2,217.6,114.3,214.8,114.2z"/>
<path class="st0" d="M330.5,205.7c2.8,0,4.8,2.1,4.8,4.9c0,2.6-2.1,4.5-4.7,4.6c-2.7,0-4.7-1.9-4.8-4.5
	C325.7,207.9,327.8,205.7,330.5,205.7z"/>
<path class="st0" d="M176.9,35.8c-2.4,0-4.7-2.2-4.8-4.6c0-2.8,2-4.9,4.9-4.7c3,0.1,4.4,1.8,4.4,4.7C181.4,34,179.6,35.8,176.9,35.8
	z"/>
<path class="st0" d="M322.7,159.2c-2.8,0-4.8-2.2-4.6-5c0.2-2.8,1.8-4.3,4.6-4.4c2.8-0.1,4.9,2.1,4.8,4.9
	C327.4,157.3,325.4,159.2,322.7,159.2z"/>
<path class="st0" d="M266,109.4c0,2.6-2,4.7-4.6,4.7c-2.7,0-4.7-1.9-4.8-4.5c-0.1-2.8,2-5,4.7-5C263.6,104.8,266,107.1,266,109.4z"
	/>
<path class="st0" d="M199.6,15.3c2.7,0,4.9,2.2,4.9,4.9c-0.1,2.6-2.1,4.4-4.9,4.3c-2.8-0.1-4.2-1.8-4.4-4.5
	C194.9,17.2,196.8,15.3,199.6,15.3z"/>
</svg>
